HIERARCHY
ROOT hip
{
  OFFSET 5.70873 43.8894 -1.52928
  CHANNELS 6 Xposition Yposition Zposition Zrotation Xrotation Yrotation
  JOINT abdomen
  {
    OFFSET 0 5.99393 0.287273
    CHANNELS 6 Xposition Yposition Zposition Zrotation Xrotation Yrotation
    JOINT chest
    {
      OFFSET 0 6.65865 -0.856112
      CHANNELS 6 Xposition Yposition Zposition Zrotation Xrotation Yrotation
      JOINT neck
      {
        OFFSET 0 8.65624 -1.42685
        CHANNELS 6 Xposition Yposition Zposition Zrotation Xrotation Yrotation
        JOINT head
        {
          OFFSET 0 3.80999 -0.190247
          CHANNELS 6 Xposition Yposition Zposition Zrotation Xrotation Yrotation
          End Site
          {
            OFFSET 0 0 0
          }
        }
      }
      JOINT rCollar
      {
        OFFSET -1.4963 7.5744 -1.52136
        CHANNELS 6 Xposition Yposition Zposition Zrotation Xrotation Yrotation
        JOINT rShldr
        {
          OFFSET -5.47506 -0.905672 0.485692
          CHANNELS 6 Xposition Yposition Zposition Zrotation Xrotation Yrotation
          JOINT rForeArm
          {
            OFFSET -11.3069 -0.201091 0.618544
            CHANNELS 6 Xposition Yposition Zposition Zrotation Xrotation Yrotation
            JOINT rHand
            {
              OFFSET -9.61414 -0.254739 3.48553
              CHANNELS 6 Xposition Yposition Zposition Zrotation Xrotation Yrotation
              JOINT rThumb1
              {
                OFFSET 0.176263 -0.07068 1.26622
                CHANNELS 6 Xposition Yposition Zposition Zrotation Xrotation Yrotation
                JOINT rThumb2
                {
                  OFFSET -1.04683 -0.546484 1.82182
                  CHANNELS 6 Xposition Yposition Zposition Zrotation Xrotation Yrotation
                  JOINT rThumb3
                  {
                    OFFSET -0.993472 -0.621916 0.655506
                    CHANNELS 6 Xposition Yposition Zposition Zrotation Xrotation Yrotation
                    End Site
                    {
                      OFFSET -0.996134 -0.66263 0.644615
                    }
                  }
                }
              }
              JOINT rIndex1
              {
                OFFSET -2.64253 0.566363 2.4162
                CHANNELS 6 Xposition Yposition Zposition Zrotation Xrotation Yrotation
                JOINT rIndex2
                {
                  OFFSET -1.39394 -0.635138 0.899356
                  CHANNELS 6 Xposition Yposition Zposition Zrotation Xrotation Yrotation
                  JOINT rIndex3
                  {
                    OFFSET -0.622395 -0.856016 0.402182
                    CHANNELS 6 Xposition Yposition Zposition Zrotation Xrotation Yrotation
                    End Site
                    {
                      OFFSET -0.472476 -0.801802 0.34216
                    }
                  }
                }
              }
              JOINT rMid1
              {
                OFFSET -3.20814 0.514427 1.52547
                CHANNELS 6 Xposition Yposition Zposition Zrotation Xrotation Yrotation
                JOINT rMid2
                {
                  OFFSET -1.56545 -0.497974 0.68919
                  CHANNELS 6 Xposition Yposition Zposition Zrotation Xrotation Yrotation
                  JOINT rMid3
                  {
                    OFFSET -0.679943 -1.17582 0.444246
                    CHANNELS 6 Xposition Yposition Zposition Zrotation Xrotation Yrotation
                    End Site
                    {
                      OFFSET -0.343874 -0.941341 0.267611
                    }
                  }
                }
              }
              JOINT rRing1
              {
                OFFSET -3.47877 0.200518 0.597719
                CHANNELS 6 Xposition Yposition Zposition Zrotation Xrotation Yrotation
                JOINT rRing2
                {
                  OFFSET -1.28208 -0.53155 0.44672
                  CHANNELS 6 Xposition Yposition Zposition Zrotation Xrotation Yrotation
                  JOINT rRing3
                  {
                    OFFSET -0.710288 -0.970167 0.4032
                    CHANNELS 6 Xposition Yposition Zposition Zrotation Xrotation Yrotation
                    End Site
                    {
                      OFFSET -0.403228 -0.950952 0.378354
                    }
                  }
                }
              }
              JOINT rPinky1
              {
                OFFSET -3.42483 -0.278904 -0.240415
                CHANNELS 6 Xposition Yposition Zposition Zrotation Xrotation Yrotation
                JOINT rPinky2
                {
                  OFFSET -1.05787 -0.635999 0.156459
                  CHANNELS 6 Xposition Yposition Zposition Zrotation Xrotation Yrotation
                  JOINT rPinky3
                  {
                    OFFSET -0.42815 -0.754232 0.287187
                    CHANNELS 6 Xposition Yposition Zposition Zrotation Xrotation Yrotation
                    End Site
                    {
                      OFFSET -0.235717 -0.725605 0.279416
                    }
                  }
                }
              }
            }
          }
        }
      }
      JOINT lCollar
      {
        OFFSET 1.4963 7.5744 -1.52136
        CHANNELS 6 Xposition Yposition Zposition Zrotation Xrotation Yrotation
        JOINT lShldr
        {
          OFFSET 5.47506 -0.905672 0.485692
          CHANNELS 6 Xposition Yposition Zposition Zrotation Xrotation Yrotation
          JOINT lForeArm
          {
            OFFSET 11.3069 -0.201091 0.618544
            CHANNELS 6 Xposition Yposition Zposition Zrotation Xrotation Yrotation
            JOINT lHand
            {
              OFFSET 9.61414 -0.254739 3.48553
              CHANNELS 6 Xposition Yposition Zposition Zrotation Xrotation Yrotation
              JOINT lThumb1
              {
                OFFSET -0.176263 -0.07068 1.26622
                CHANNELS 6 Xposition Yposition Zposition Zrotation Xrotation Yrotation
                JOINT lThumb2
                {
                  OFFSET 1.04683 -0.546484 1.82182
                  CHANNELS 6 Xposition Yposition Zposition Zrotation Xrotation Yrotation
                  JOINT lThumb3
                  {
                    OFFSET 0.993472 -0.621916 0.655506
                    CHANNELS 6 Xposition Yposition Zposition Zrotation Xrotation Yrotation
                    End Site
                    {
                      OFFSET 0.996134 -0.66263 0.644615
                    }
                  }
                }
              }
              JOINT lIndex1
              {
                OFFSET 2.64253 0.566363 2.4162
                CHANNELS 6 Xposition Yposition Zposition Zrotation Xrotation Yrotation
                JOINT lIndex2
                {
                  OFFSET 1.39394 -0.635138 0.899356
                  CHANNELS 6 Xposition Yposition Zposition Zrotation Xrotation Yrotation
                  JOINT lIndex3
                  {
                    OFFSET 0.622395 -0.856016 0.402182
                    CHANNELS 6 Xposition Yposition Zposition Zrotation Xrotation Yrotation
                    End Site
                    {
                      OFFSET 0.472476 -0.801802 0.34216
                    }
                  }
                }
              }
              JOINT lMid1
              {
                OFFSET 3.20814 0.514427 1.52547
                CHANNELS 6 Xposition Yposition Zposition Zrotation Xrotation Yrotation
                JOINT lMid2
                {
                  OFFSET 1.56545 -0.497974 0.68919
                  CHANNELS 6 Xposition Yposition Zposition Zrotation Xrotation Yrotation
                  JOINT lMid3
                  {
                    OFFSET 0.679943 -1.17582 0.444246
                    CHANNELS 6 Xposition Yposition Zposition Zrotation Xrotation Yrotation
                    End Site
                    {
                      OFFSET 0.343874 -0.941341 0.267611
                    }
                  }
                }
              }
              JOINT lRing1
              {
                OFFSET 3.47877 0.200518 0.597719
                CHANNELS 6 Xposition Yposition Zposition Zrotation Xrotation Yrotation
                JOINT lRing2
                {
                  OFFSET 1.28208 -0.53155 0.44672
                  CHANNELS 6 Xposition Yposition Zposition Zrotation Xrotation Yrotation
                  JOINT lRing3
                  {
                    OFFSET 0.710288 -0.970167 0.4032
                    CHANNELS 6 Xposition Yposition Zposition Zrotation Xrotation Yrotation
                    End Site
                    {
                      OFFSET 0.403228 -0.950952 0.378354
                    }
                  }
                }
              }
              JOINT lPinky1
              {
                OFFSET 3.42483 -0.278904 -0.240415
                CHANNELS 6 Xposition Yposition Zposition Zrotation Xrotation Yrotation
                JOINT lPinky2
                {
                  OFFSET 1.05787 -0.635999 0.156459
                  CHANNELS 6 Xposition Yposition Zposition Zrotation Xrotation Yrotation
                  JOINT lPinky3
                  {
                    OFFSET 0.42815 -0.754232 0.287187
                    CHANNELS 6 Xposition Yposition Zposition Zrotation Xrotation Yrotation
                    End Site
                    {
                      OFFSET 0.235717 -0.725605 0.279416
                    }
                  }
                }
              }
            }
          }
        }
      }
    }
  }
  JOINT rThigh
  {
    OFFSET -4.17848 -1.02486 0.046356
    CHANNELS 6 Xposition Yposition Zposition Zrotation Xrotation Yrotation
    JOINT rShin
    {
      OFFSET 1.27155 -17.465 -0.237699
      CHANNELS 6 Xposition Yposition Zposition Zrotation Xrotation Yrotation
      JOINT rFoot
      {
        OFFSET 0.529163 -17.3815 -1.19582
        CHANNELS 6 Xposition Yposition Zposition Zrotation Xrotation Yrotation
        JOINT rToe
        {
          OFFSET -0.711591 -4.4863 4.0596
          CHANNELS 6 Xposition Yposition Zposition Zrotation Xrotation Yrotation
          End Site
          {
            OFFSET -0.869915 -1.10655 1.99006
          }
        }
      }
    }
  }
  JOINT lThigh
  {
    OFFSET 4.17848 -1.02486 0.046356
    CHANNELS 6 Xposition Yposition Zposition Zrotation Xrotation Yrotation
    JOINT lShin
    {
      OFFSET -1.27155 -17.465 -0.237699
      CHANNELS 6 Xposition Yposition Zposition Zrotation Xrotation Yrotation
      JOINT lFoot
      {
        OFFSET -0.529163 -17.3815 -1.19582
        CHANNELS 6 Xposition Yposition Zposition Zrotation Xrotation Yrotation
        JOINT lToe
        {
          OFFSET 0.711591 -4.4863 4.0596
          CHANNELS 6 Xposition Yposition Zposition Zrotation Xrotation Yrotation
          End Site
          {
            OFFSET 0.869915 -1.10655 1.99006
          }
        }
      }
    }
  }
}
MOTION
Frames:	4
Frame Time:	0.0333333
0.190951 30.0549 -3.95543 -3.33875 6.55382 -4.32422 0 5.99393 0.287273 4.33224 5.46011 -3.83375 -1.11022e-016 6.65865 -0.856112 9.08201 10.6002 -8.1254 4.44089e-016 8.65624 -1.42685 4.77818 -3.18602 -28.9336 0 3.80999 -0.190247 10.5407 0.14105 -26.1817 -1.4963 7.5744 -1.52136 -15.5865 -0.141608 4.07727 -5.47506 -0.905672 0.485692 42.0794 -17.0863 -8.8961 -11.3069 -0.201091 0.618544 29.0788 20.8315 90.4335 -9.61414 -0.254739 3.48553 -66.3881 44.0724 45.77 0.176263 -0.07068 1.26622 10.8261 -14.8983 -18.9302 -1.04683 -0.546484 1.82182 -2.91386 3.62397 -9.48845 -0.993472 -0.621916 0.655506 -4.78569 6.81019 -16.9207 -2.64253 0.566363 2.4162 30.3034 17.6785 -10.4076 -1.39394 -0.635138 0.899356 18.0133 4.27597 -3.33226 -0.622395 -0.856016 0.402182 24.1506 5.45228 -4.74005 -3.20814 0.514427 1.52547 13.9868 11.6108 -2.06817 -1.56545 -0.497974 0.68919 30.3544 7.65812 -6.43479 -0.679943 -1.17582 0.444246 5.85104 1.74745 -0.920833 -3.47877 0.200518 0.597719 16.8577 3.66893 -11.1533 -1.28208 -0.53155 0.44672 27.1282 7.74755 -6.82764 -0.710288 -0.970167 0.4032 4.03041 1.3647 -0.783359 -3.42483 -0.278904 -0.240415 18.6981 0.312543 -24.5771 -1.05787 -0.635999 0.156459 26.2113 8.33212 -6.36031 -0.42815 -0.754232 0.287187 7.09928 2.56977 -1.35414 1.4963 7.5744 -1.52136 9.62097 -1.86339 6.2552 5.47506 -0.905672 0.485692 -48.6033 -11.2793 50.7797 11.3069 -0.201091 0.618544 -32.2684 17.1001 -98.0718 9.61414 -0.254739 3.48553 4.45089 38.0926 -20.4313 -0.176263 -0.07068 1.26622 -8.45292 1.02225 4.93691 1.04683 -0.546484 1.82182 3.62864 1.30782 6.55496 0.993472 -0.621916 0.655506 7.44367 3.22309 13.7003 2.64253 0.566363 2.4162 -1.70266 18.0923 9.90619 1.39394 -0.635138 0.899356 4.11113 -1.44163 -1.60062 0.622395 -0.856016 0.402182 -1.44963 0.477323 0.584638 3.20814 0.514427 1.52547 11.149 6.61856 0.364355 1.56545 -0.497974 0.68919 -12.9342 4.22311 5.61989 0.679943 -1.17582 0.444246 -13.752 4.44209 5.99926 3.47877 0.200518 0.597719 6.767 -1.96126 5.19585 1.28208 -0.53155 0.44672 -10.0036 3.71958 4.83006 0.710288 -0.970167 0.4032 -11.7762 4.27702 5.73439 3.42483 -0.278904 -0.240415 8.45838 -1.92823 19.406 1.05787 -0.635999 0.156459 -9.2459 3.78172 4.37818 0.42815 -0.754232 0.287187 -14.6455 5.59905 7.13283 -4.17848 -1.02486 0.046356 -102.263 -86.8755 -104.254 1.27155 -17.465 -0.237699 83.9758 76.3997 -76.6729 0.529163 -17.3815 -1.19582 -7.7051 4.90029 -10.6515 -0.711591 -4.4863 4.0596 0.791809 5.6808 -0.192376 4.17848 -1.02486 0.046356 -125.543 -84.0306 -141.75 -1.27155 -17.465 -0.237699 -9.48368 87.9252 15.8855 -0.529163 -17.3815 -1.19582 -8.53922 21.7816 1.05783 0.711591 -4.4863 4.0596 0.00343748 -0.0344277 0.00177046 
0.169678 30.0521 -3.95167 -3.01697 6.89657 -4.54786 0 5.99393 0.287273 4.47285 5.37719 -3.84271 0 6.65865 -0.856112 9.35775 10.4237 -8.1478 0 8.65624 -1.42685 4.95382 -2.93343 -28.8467 2.22045e-016 3.80999 -0.190247 10.8065 0.617892 -26.0454 -1.4963 7.5744 -1.52136 -15.5864 -0.141559 4.07724 -5.47506 -0.905672 0.485692 41.1692 -17.3629 -8.62882 -11.3069 -0.201091 0.618544 29.2017 21.7315 90.8893 -9.61414 -0.254739 3.48553 -66.7855 44.6352 45.2104 0.176263 -0.07068 1.26622 10.8261 -14.8982 -18.9302 -1.04683 -0.546484 1.82182 -2.91386 3.62397 -9.48844 -0.993472 -0.621916 0.655506 -4.78569 6.81018 -16.9206 -2.64253 0.566363 2.4162 30.3034 17.6785 -10.4075 -1.39394 -0.635138 0.899356 18.0133 4.27599 -3.33224 -0.622395 -0.856016 0.402182 24.1506 5.45227 -4.74006 -3.20814 0.514427 1.52547 13.9868 11.6108 -2.06814 -1.56545 -0.497974 0.68919 30.3544 7.65812 -6.43479 -0.679943 -1.17582 0.444246 5.85104 1.74745 -0.920834 -3.47877 0.200518 0.597719 16.8576 3.66896 -11.1533 -1.28208 -0.53155 0.44672 27.1282 7.74755 -6.82762 -0.710288 -0.970167 0.4032 4.0304 1.36471 -0.783359 -3.42483 -0.278904 -0.240415 18.6981 0.312557 -24.5771 -1.05787 -0.635999 0.156459 26.2113 8.33212 -6.36029 -0.42815 -0.754232 0.287187 7.09928 2.56979 -1.35413 1.4963 7.5744 -1.52136 9.47967 -1.91031 6.23514 5.47506 -0.905672 0.485692 -48.7362 -11.1318 50.9504 11.3069 -0.201091 0.618544 -32.3436 16.6472 -97.2589 9.61414 -0.254739 3.48553 4.60719 37.5099 -21.4979 -0.176263 -0.07068 1.26622 -8.45293 1.02221 4.93692 1.04683 -0.546484 1.82182 3.62871 1.30791 6.5549 0.993472 -0.621916 0.655506 7.44365 3.22308 13.7003 2.64253 0.566363 2.4162 -1.70266 18.0922 9.9062 1.39394 -0.635138 0.899356 4.11112 -1.44164 -1.60063 0.622395 -0.856016 0.402182 -1.44963 0.477299 0.584664 3.20814 0.514427 1.52547 11.1491 6.6187 0.364344 1.56545 -0.497974 0.68919 -12.9343 4.2231 5.6199 0.679943 -1.17582 0.444246 -13.752 4.4421 5.99923 3.47877 0.200518 0.597719 6.76701 -1.96127 5.19584 1.28208 -0.53155 0.44672 -10.0036 3.7197 4.83 0.710288 -0.970167 0.4032 -11.7762 4.27696 5.73445 3.42483 -0.278904 -0.240415 8.45843 -1.92812 19.406 1.05787 -0.635999 0.156459 -9.2459 3.78182 4.37813 0.42815 -0.754232 0.287187 -14.6455 5.59906 7.13283 -4.17848 -1.02486 0.046356 -111.68 -87.0406 -113.872 1.27155 -17.465 -0.237699 83.365 76.4203 -76.1485 0.529163 -17.3815 -1.19582 -7.57169 4.86218 -10.7553 -0.711591 -4.4863 4.0596 0.791818 5.68082 -0.192372 4.17848 -1.02486 0.046356 -130.404 -84.1274 -146.822 -1.27155 -17.465 -0.237699 -11.3871 87.8953 17.5078 -0.529163 -17.3815 -1.19582 -8.10002 21.8161 0.767237 0.711591 -4.4863 4.0596 0.00344139 -0.0344219 0.00177217 
0.138369 30.0478 -3.94502 -2.33101 7.46978 -5.1044 -2.22045e-016 5.99393 0.287273 4.50809 5.19188 -3.79841 5.55112e-017 6.65865 -0.856112 9.40786 10.0553 -8.04332 0 8.65624 -1.42685 5.03264 -2.64328 -28.6881 2.22045e-016 3.80999 -0.190247 10.8607 0.97262 -25.8757 -1.4963 7.5744 -1.52136 -15.5864 -0.141535 4.07723 -5.47506 -0.905672 0.485692 40.1102 -17.5025 -8.38686 -11.3069 -0.201091 0.618544 29.3698 22.8708 91.4828 -9.61414 -0.254739 3.48553 -67.3599 45.2445 44.6062 0.176263 -0.07068 1.26622 10.8261 -14.8983 -18.9302 -1.04683 -0.546484 1.82182 -2.91386 3.62396 -9.48843 -0.993472 -0.621916 0.655506 -4.78568 6.81018 -16.9206 -2.64253 0.566363 2.4162 30.3034 17.6785 -10.4075 -1.39394 -0.635138 0.899356 18.0133 4.27601 -3.33225 -0.622395 -0.856016 0.402182 24.1506 5.45229 -4.74005 -3.20814 0.514427 1.52547 13.9868 11.6109 -2.06817 -1.56545 -0.497974 0.68919 30.3544 7.65814 -6.43478 -0.679943 -1.17582 0.444246 5.85104 1.74745 -0.92083 -3.47877 0.200518 0.597719 16.8576 3.66902 -11.1533 -1.28208 -0.53155 0.44672 27.1282 7.74756 -6.82762 -0.710288 -0.970167 0.4032 4.03039 1.36471 -0.783345 -3.42483 -0.278904 -0.240415 18.698 0.312583 -24.5771 -1.05787 -0.635999 0.156459 26.2113 8.33213 -6.36028 -0.42815 -0.754232 0.287187 7.09927 2.56982 -1.35409 1.4963 7.5744 -1.52136 9.333 -1.95885 6.21204 5.47506 -0.905672 0.485692 -48.7779 -11.001 51.533 11.3069 -0.201091 0.618544 -32.4253 16.1418 -96.3201 9.61414 -0.254739 3.48553 4.70001 36.8524 -22.9097 -0.176263 -0.07068 1.26622 -8.45296 1.02216 4.93688 1.04683 -0.546484 1.82182 3.62871 1.30791 6.5549 0.993472 -0.621916 0.655506 7.44366 3.22308 13.7004 2.64253 0.566363 2.4162 -1.70266 18.0922 9.90618 1.39394 -0.635138 0.899356 4.11111 -1.44168 -1.60062 0.622395 -0.856016 0.402182 -1.44964 0.477266 0.584688 3.20814 0.514427 1.52547 11.1491 6.61869 0.364322 1.56545 -0.497974 0.68919 -12.9343 4.22309 5.6199 0.679943 -1.17582 0.444246 -13.752 4.44209 5.99926 3.47877 0.200518 0.597719 6.76698 -1.96132 5.19583 1.28208 -0.53155 0.44672 -10.0036 3.71969 4.83001 0.710288 -0.970167 0.4032 -11.7763 4.27709 5.73438 3.42483 -0.278904 -0.240415 8.45843 -1.92814 19.406 1.05787 -0.635999 0.156459 -9.24589 3.78184 4.3781 0.42815 -0.754232 0.287187 -14.6455 5.59905 7.13284 -4.17848 -1.02486 0.046356 -130.287 -87.1205 -132.613 1.27155 -17.465 -0.237699 83.0799 76.4523 -75.9678 0.529163 -17.3815 -1.19582 -7.50933 4.8557 -10.8479 -0.711591 -4.4863 4.0596 0.791813 5.68082 -0.192382 4.17848 -1.02486 0.046356 -138.572 -84.1386 -155.054 -1.27155 -17.465 -0.237699 -12.53 87.8674 18.4855 -0.529163 -17.3815 -1.19582 -7.9025 21.8445 0.613198 0.711591 -4.4863 4.0596 0.00343956 -0.034433 0.00177082 
0.100016 30.0422 -3.93657 -1.38002 8.19612 -5.91009 2.22045e-016 5.99393 0.287273 4.46299 4.93491 -3.71458 0 6.65865 -0.856112 9.28748 9.55334 -7.84591 0 8.65624 -1.42685 5.04097 -2.33377 -28.4753 0 3.80999 -0.190247 10.7578 1.23558 -25.6838 -1.4963 7.5744 -1.52136 -15.5864 -0.141557 4.07722 -5.47506 -0.905672 0.485692 38.9684 -17.5343 -8.139 -11.3069 -0.201091 0.618544 29.5701 24.158 92.159 -9.61414 -0.254739 3.48553 -68.0606 45.8797 43.9818 0.176263 -0.07068 1.26622 10.8261 -14.8982 -18.9302 -1.04683 -0.546484 1.82182 -2.91386 3.62397 -9.48842 -0.993472 -0.621916 0.655506 -4.78569 6.81019 -16.9207 -2.64253 0.566363 2.4162 30.3033 17.6785 -10.4075 -1.39394 -0.635138 0.899356 18.0133 4.27606 -3.33226 -0.622395 -0.856016 0.402182 24.1506 5.45229 -4.74005 -3.20814 0.514427 1.52547 13.9868 11.6109 -2.06819 -1.56545 -0.497974 0.68919 30.3544 7.65815 -6.43479 -0.679943 -1.17582 0.444246 5.85104 1.74745 -0.920823 -3.47877 0.200518 0.597719 16.8577 3.66888 -11.1533 -1.28208 -0.53155 0.44672 27.1282 7.74755 -6.82761 -0.710288 -0.970167 0.4032 4.03039 1.36472 -0.783346 -3.42483 -0.278904 -0.240415 18.698 0.312654 -24.5771 -1.05787 -0.635999 0.156459 26.2113 8.33216 -6.36028 -0.42815 -0.754232 0.287187 7.09927 2.56985 -1.35403 1.4963 7.5744 -1.52136 9.18154 -2.00888 6.18611 5.47506 -0.905672 0.485692 -48.7319 -10.8823 52.3988 11.3069 -0.201091 0.618544 -32.5074 15.6103 -95.2952 9.61414 -0.254739 3.48553 4.73365 36.1455 -24.5367 -0.176263 -0.07068 1.26622 -8.45292 1.02226 4.93693 1.04683 -0.546484 1.82182 3.62869 1.3079 6.55487 0.993472 -0.621916 0.655506 7.44366 3.22307 13.7004 2.64253 0.566363 2.4162 -1.70268 18.0922 9.90619 1.39394 -0.635138 0.899356 4.11109 -1.44176 -1.60063 0.622395 -0.856016 0.402182 -1.44965 0.477179 0.58472 3.20814 0.514427 1.52547 11.1491 6.61867 0.364344 1.56545 -0.497974 0.68919 -12.9342 4.2231 5.61989 0.679943 -1.17582 0.444246 -13.752 4.44208 5.99924 3.47877 0.200518 0.597719 6.76697 -1.96138 5.19585 1.28208 -0.53155 0.44672 -10.0036 3.71969 4.82999 0.710288 -0.970167 0.4032 -11.7762 4.27707 5.73439 3.42483 -0.278904 -0.240415 8.45844 -1.92814 19.406 1.05787 -0.635999 0.156459 -9.24587 3.78183 4.3781 0.42815 -0.754232 0.287187 -14.6455 5.59906 7.13283 -4.17848 -1.02486 0.046356 -153.554 -86.7867 -155.97 1.27155 -17.465 -0.237699 83.0763 76.4955 -76.0817 0.529163 -17.3815 -1.19582 -7.50183 4.87308 -10.9284 -0.711591 -4.4863 4.0596 0.791815 5.68082 -0.192373 4.17848 -1.02486 0.046356 -148.701 -83.9716 -165.15 -1.27155 -17.465 -0.237699 -13.101 87.8423 18.9799 -0.529163 -17.3815 -1.19582 -7.89091 21.8658 0.5638 0.711591 -4.4863 4.0596 0.00343098 -0.0344393 0.00177081 
